<?xml version="1.0" encoding="UTF-8"?>
<svg id="_레이어_1" data-name="레이어_1" xmlns="http://www.w3.org/2000/svg" version="1.1" viewBox="0 0 1000 1000">
  <!-- Generator: Adobe Illustrator 30.0.0, SVG Export Plug-In . SVG Version: 2.1.1 Build 123)  -->
  <defs>
    <style>
      .st0 {
        fill: #30295a;
      }
    </style>
  </defs>
  <path class="st0" d="M472.36,777.54c47.2,17.06,89.95,14.33,139.19,10.49,6.24-1.98,4.08-9.32.83-13.26l-229.9-145.42c-8.45-2.75-7.63,6.04-7.14,11.78,5.08,62.12,36.8,114.63,97.05,136.42h-.02Z"/>
  <path class="st0" d="M770.98,777.57c42.02-13.36,56.38-49.38,60.78-89.52-12.53-2.6-18.97,8.15-28.4,13.86-41.56,25.23-82.86,50.94-124.62,75.71,3.21,4.25,5.47,5.4,10.79,6.12,17.17,2.25,65.08-.96,81.43-6.16h.02Z"/>
  <path class="st0" d="M986.86,381.86c-3.62-60.4-37.41-118.98-66.12-167.07l-6.83-9.08c6.12,33.18,9.98,87.08-.19,119.41-4.69,14.86-4.79-4.32-5.73-8.15-18.02-73.01-55.31-105.22-110.16-139.86-51.21-32.35-118.4-59.94-176.38-68.11-5.25-.74-4.54.91-1.07,4.13,28.76,26.66,55.26,54.71,73.17,93.03-2.38,2.41-28.83-15.96-34.25-18.52-95.3-44.84-236.7-93.77-369.31-176.12,19.17,42.48,31.58,64.77,43.46,95.3,12.15,31.23,29.15,62.14,35.9,92.39-46.96-8.51-87.16-34.12-140.21-71.91-3.94-2.87-16.13-11.9-19.17-14.79-9.89-9.37-19.07-15.94-30.8-25.83-8.31-6.98-69.47-52.27-74.87-61.61-1.55,2.84,6.78,68.42,7.02,71.67,4.66,62.07,6.05,61.9,10.15,123.13,2.26,33.73,5.93,52.54,12.29,83.71-24.58-17.51-48.68-35.76-76.42-56.07-5.88-5.45-18.53-15.36-25.36-19.71l9.98,46.63c7.02,38.06,43.63,143.82,71.54,202.98-24.51,35.69-41.83,67.04-70.06,103.5l-30.95,39.28,121.51-86.1c-8.45,146.19,23.47,311.56,153.82,391.48,30.1,18.44,70.13,36.15,104.28,45.56,36.56,10.08,81.4,19.88,119.01,16.75-19.36-6.64-36.92-11.83-54.73-17.85-180.34-60.78-267.77-192.89-258.71-381.25.41-8.62,1.24-17.2,2.33-25.73l103.68,73.46-30.95-39.28c-28.42-36.72-45.79-68.26-70.59-104.26-11.32-16.46-20.96-34-28.66-52.37h0c-1.24-6.52-21.11-50.67-24.41-59.03-2.48-6.24-16.42-47.59-14.99-49.62,28.3,25.3,91.22,93.89,126.51,94.2l-27.47-65.53c-3.33-7.91-6.07-16.05-8.26-24.34-11.68-44.44-18.56-74.47-27.69-129.68l51.28,24.42c118.76,62.12,121.87,62.9,217,109.11l-29.68-118.67c-7.02-29.46-10.79-48.04-17.81-78.58,149.22,75.52,200.72,75.28,366.05,217.6l1.29-13.9c.92-10.01.75-20.09-.7-30.05-3.26-22.31-9.04-43.29-16.57-64.55-3.91-11.01-8.02-22.55-12.15-34.38,50.02,39.9,122.14,92.31,128.26,170.13,1.97,25.09-.9,50.77-2.38,75.69,4.23,1.29,4.88-2.05,7.34-4.25,22.25-19.95,38.33-52.7,54.97-78.62,9.43,54.95-10.76,106.55-41.37,146.79h-.15c-.1.19-.19.38-.27.55-8.28,10.82-17.3,20.81-26.7,29.82-3.04,2.91-4.11,5.18-10.06,10.46.27.86.53,1.74.75,2.63-.1.05-.17.12-.27.17,10.45,174.14-33.57,335.48-224.21,394.82-20.55,6.4-43.7,14.62-62.6,20.83,98.92-2.6,194.29-48.88,253.58-126.86,60.54-79.58,83.15-175.81,89.98-273.29,45.04-55.62,68.87-126.29,64.18-204.65l-.07.07Z"/>
</svg>